<svg xmlns="http://www.w3.org/2000/svg" width="1000" height="390" viewBox="0 0 1000 390" role="img" aria-labelledby="title desc">
  <title id="title">Central de integrações de Valdiclei Filho</title>
  <desc id="desc">Painel visual com a identidade profissional, stack principal e áreas de atuação de um desenvolvedor de integrações.</desc>
  <defs>
    <pattern id="grid" width="24" height="24" patternUnits="userSpaceOnUse">
      <path d="M 24 0 L 0 0 0 24" fill="none" stroke="#17354a" stroke-width="0.7" opacity="0.55"/>
    </pattern>
  </defs>
  <rect width="1000" height="390" rx="18" fill="#071018"/>
  <rect x="1" y="1" width="998" height="388" rx="17" fill="url(#grid)" stroke="#1d5d7d"/>
  <g fill="none" stroke="#36c5f0" stroke-width="1" opacity="0.8">
    <path d="M28 52H230l18 18h120"/>
    <path d="M632 34h170l20 20h150"/>
    <path d="M28 339h120l18 18h232"/>
    <path d="M722 356h190l18-18h42"/>
  </g>
  <g transform="translate(56 90)">
    <circle cx="92" cy="92" r="78" fill="#091923" stroke="#32c3ee" stroke-width="2"/>
    <circle cx="92" cy="92" r="59" fill="none" stroke="#1d8eb7" stroke-width="1"/>
    <path d="M18 92h148M92 18v148M34 40l116 104M34 144L150 40" stroke="#1d8eb7" stroke-width="0.7" opacity="0.75"/>
    <path d="M13 72c38-58 114-65 158-10M19 122c35 49 109 57 151 8" stroke="#f59b42" stroke-width="2" opacity="0.9"/>
    <text x="92" y="110" text-anchor="middle" fill="#e8f5fb" font-family="Segoe UI, Arial, sans-serif" font-size="54" font-weight="700">VF</text>
  </g>
  <text x="52" y="38" fill="#58d4f7" font-family="Consolas, monospace" font-size="14" letter-spacing="1.5">CENTRO DE INTEGRAÇÕES // PERFIL PROFISSIONAL</text>
  <text x="272" y="112" fill="#f2f8fb" font-family="Segoe UI, Arial, sans-serif" font-size="46" font-weight="700">Valdiclei Filho</text>
  <text x="274" y="149" fill="#50d47c" font-family="Consolas, monospace" font-size="24" letter-spacing="1">DESENVOLVEDOR DE INTEGRAÇÕES</text>
  <text x="274" y="183" fill="#a9c4d1" font-family="Segoe UI, Arial, sans-serif" font-size="19">APIs, sistemas corporativos e automação confiável.</text>
  <rect x="274" y="207" width="330" height="40" rx="4" fill="#0b231a" stroke="#2dcf69"/>
  <circle cx="298" cy="227" r="7" fill="#47d878"/>
  <text x="316" y="233" fill="#6ee996" font-family="Consolas, monospace" font-size="16" letter-spacing="0.7">CONECTAR • VALIDAR • ENTREGAR</text>
  <g font-family="Segoe UI, Arial, sans-serif">
    <text x="744" y="111" fill="#ecf5fa" font-size="17" font-weight="700">CAMPO DE ATUAÇÃO</text>
    <text x="744" y="145" fill="#91b1c0" font-size="15">Integrações corporativas</text>
    <text x="744" y="173" fill="#91b1c0" font-size="15">Dados e relatórios</text>
    <text x="744" y="201" fill="#91b1c0" font-size="15">Observabilidade e suporte</text>
    <text x="744" y="229" fill="#91b1c0" font-size="15">Documentação técnica</text>
  </g>
  <line x1="52" y1="284" x2="948" y2="284" stroke="#1e475d"/>
  <text x="52" y="317" fill="#58d4f7" font-family="Consolas, monospace" font-size="14" letter-spacing="1.4">STACK PRINCIPAL</text>
  <text x="52" y="350" fill="#f2f8fb" font-family="Segoe UI, Arial, sans-serif" font-size="20" font-weight="700">Docker</text>
  <text x="134" y="350" fill="#4d90af" font-family="Segoe UI, Arial, sans-serif" font-size="20">•</text>
  <text x="157" y="350" fill="#d8e7ed" font-family="Segoe UI, Arial, sans-serif" font-size="20">Node.js</text>
  <text x="248" y="350" fill="#4d90af" font-family="Segoe UI, Arial, sans-serif" font-size="20">•</text>
  <text x="271" y="350" fill="#d8e7ed" font-family="Segoe UI, Arial, sans-serif" font-size="20">TypeScript</text>
  <text x="390" y="350" fill="#4d90af" font-family="Segoe UI, Arial, sans-serif" font-size="20">•</text>
  <text x="413" y="350" fill="#d8e7ed" font-family="Segoe UI, Arial, sans-serif" font-size="20">AWS Lambda</text>
  <text x="552" y="350" fill="#4d90af" font-family="Segoe UI, Arial, sans-serif" font-size="20">•</text>
  <text x="575" y="350" fill="#d8e7ed" font-family="Segoe UI, Arial, sans-serif" font-size="20">REST / SOAP</text>
  <text x="715" y="350" fill="#4d90af" font-family="Segoe UI, Arial, sans-serif" font-size="20">•</text>
  <text x="738" y="350" fill="#d8e7ed" font-family="Segoe UI, Arial, sans-serif" font-size="20">SQL / MySQL</text>
  <text x="52" y="375" fill="#7699aa" font-family="Consolas, monospace" font-size="13">EM EVOLUÇÃO: Python • FastAPI • PostgreSQL • arquitetura de backend dedicada</text>
</svg>
